<mxfile host="www.draw.io" modified="2019-11-18T05:18:12.475Z" agent="Mozilla/5.0 (Windows NT 6.1; WOW64) AppleWebKit/537.36 (KHTML, like Gecko) Chrome/70.0.3538.25 Safari/537.36 Core/1.70.3732.400 QQBrowser/10.5.3819.400" etag="mGQdCBIBxbY4ZAX9G0E4" version="12.2.6" type="github" pages="1">
  <diagram id="zbUl34zsMSVqsNXtb6FK" name="第 1 页">
    <mxGraphModel dx="851" dy="704" grid="1" gridSize="10" guides="1" tooltips="1" connect="1" arrows="1" fold="1" page="1" pageScale="1" pageWidth="827" pageHeight="1169" math="0" shadow="0">
      <root>
        <mxCell id="0"/>
        <mxCell id="1" parent="0"/>
        <mxCell id="PK3IxVRG6MYRKvx6qT1c-5" style="edgeStyle=orthogonalEdgeStyle;rounded=0;orthogonalLoop=1;jettySize=auto;html=1;exitX=0.5;exitY=1;exitDx=0;exitDy=0;entryX=0.5;entryY=0;entryDx=0;entryDy=0;" parent="1" source="PK3IxVRG6MYRKvx6qT1c-1" target="PK3IxVRG6MYRKvx6qT1c-3" edge="1">
          <mxGeometry relative="1" as="geometry"/>
        </mxCell>
        <mxCell id="PK3IxVRG6MYRKvx6qT1c-6" style="edgeStyle=orthogonalEdgeStyle;rounded=0;orthogonalLoop=1;jettySize=auto;html=1;exitX=0.5;exitY=1;exitDx=0;exitDy=0;entryX=0;entryY=0;entryDx=0;entryDy=0;" parent="1" source="PK3IxVRG6MYRKvx6qT1c-1" target="PK3IxVRG6MYRKvx6qT1c-4" edge="1">
          <mxGeometry relative="1" as="geometry"/>
        </mxCell>
        <mxCell id="PK3IxVRG6MYRKvx6qT1c-1" value="买，不买" style="rounded=1;whiteSpace=wrap;html=1;" parent="1" vertex="1">
          <mxGeometry x="250" y="150" width="150" height="60" as="geometry"/>
        </mxCell>
        <mxCell id="PK3IxVRG6MYRKvx6qT1c-2" value="&lt;font style=&quot;font-size: 18px&quot;&gt;3点钟的火车票是200，4点钟的火车票是400是。是否买3点的？&lt;/font&gt;" style="text;html=1;resizable=0;points=[];autosize=1;align=left;verticalAlign=top;spacingTop=-4;" parent="1" vertex="1">
          <mxGeometry x="140" y="80" width="520" height="20" as="geometry"/>
        </mxCell>
        <mxCell id="PK3IxVRG6MYRKvx6qT1c-7" style="edgeStyle=orthogonalEdgeStyle;rounded=0;orthogonalLoop=1;jettySize=auto;html=1;" parent="1" source="PK3IxVRG6MYRKvx6qT1c-3" edge="1">
          <mxGeometry relative="1" as="geometry">
            <mxPoint x="150" y="370" as="targetPoint"/>
          </mxGeometry>
        </mxCell>
        <mxCell id="PK3IxVRG6MYRKvx6qT1c-8" style="edgeStyle=orthogonalEdgeStyle;rounded=0;orthogonalLoop=1;jettySize=auto;html=1;exitX=1;exitY=0.5;exitDx=0;exitDy=0;" parent="1" source="PK3IxVRG6MYRKvx6qT1c-3" edge="1">
          <mxGeometry relative="1" as="geometry">
            <mxPoint x="280" y="370" as="targetPoint"/>
          </mxGeometry>
        </mxCell>
        <mxCell id="PK3IxVRG6MYRKvx6qT1c-3" value="买" style="ellipse;whiteSpace=wrap;html=1;" parent="1" vertex="1">
          <mxGeometry x="180" y="250" width="70" height="50" as="geometry"/>
        </mxCell>
        <mxCell id="PK3IxVRG6MYRKvx6qT1c-11" style="edgeStyle=orthogonalEdgeStyle;rounded=0;orthogonalLoop=1;jettySize=auto;html=1;" parent="1" source="PK3IxVRG6MYRKvx6qT1c-4" edge="1">
          <mxGeometry relative="1" as="geometry">
            <mxPoint x="413" y="350" as="targetPoint"/>
          </mxGeometry>
        </mxCell>
        <mxCell id="PK3IxVRG6MYRKvx6qT1c-4" value="不买" style="ellipse;whiteSpace=wrap;html=1;" parent="1" vertex="1">
          <mxGeometry x="378" y="240" width="70" height="50" as="geometry"/>
        </mxCell>
        <mxCell id="PK3IxVRG6MYRKvx6qT1c-9" value="赶不到的&lt;br&gt;几率60%" style="text;html=1;resizable=0;points=[];autosize=1;align=left;verticalAlign=top;spacingTop=-4;" parent="1" vertex="1">
          <mxGeometry x="90" y="313" width="60" height="30" as="geometry"/>
        </mxCell>
        <mxCell id="PK3IxVRG6MYRKvx6qT1c-10" value="赶到的几率&lt;br&gt;是40%" style="text;html=1;resizable=0;points=[];autosize=1;align=left;verticalAlign=top;spacingTop=-4;" parent="1" vertex="1">
          <mxGeometry x="285" y="313" width="80" height="30" as="geometry"/>
        </mxCell>
        <mxCell id="PK3IxVRG6MYRKvx6qT1c-12" value="400" style="text;html=1;resizable=0;points=[];autosize=1;align=left;verticalAlign=top;spacingTop=-4;" parent="1" vertex="1">
          <mxGeometry x="400" y="350" width="40" height="20" as="geometry"/>
        </mxCell>
        <mxCell id="PK3IxVRG6MYRKvx6qT1c-13" value="200" style="text;html=1;resizable=0;points=[];autosize=1;align=left;verticalAlign=top;spacingTop=-4;" parent="1" vertex="1">
          <mxGeometry x="265" y="380" width="40" height="20" as="geometry"/>
        </mxCell>
        <mxCell id="PK3IxVRG6MYRKvx6qT1c-14" value="600&lt;br&gt;" style="text;html=1;resizable=0;points=[];autosize=1;align=left;verticalAlign=top;spacingTop=-4;" parent="1" vertex="1">
          <mxGeometry x="130" y="380" width="40" height="20" as="geometry"/>
        </mxCell>
        <mxCell id="PK3IxVRG6MYRKvx6qT1c-15" value="注：为什么赶不到会是600，因为前面买了三点中的票，没赶到所以有买了四点的票" style="text;html=1;resizable=0;points=[];autosize=1;align=left;verticalAlign=top;spacingTop=-4;" parent="1" vertex="1">
          <mxGeometry x="160" y="110" width="460" height="20" as="geometry"/>
        </mxCell>
        <mxCell id="8XjsVlwxSHX_jTrg6A-a-1" value="&lt;font style=&quot;font-size: 14px&quot;&gt;600 * 60% =&amp;nbsp; 240&lt;br&gt;200 * 40% = 120&lt;br&gt;240 + 120 = 360&lt;/font&gt;&lt;br&gt;&lt;br&gt;&lt;font style=&quot;font-size: 14px&quot;&gt;得出买3点钟的票总花费360&lt;br&gt;&lt;/font&gt;&lt;font style=&quot;font-size: 14px&quot;&gt;买是最优选择&lt;/font&gt;" style="text;html=1;resizable=0;points=[];autosize=1;align=left;verticalAlign=top;spacingTop=-4;" vertex="1" parent="1">
          <mxGeometry x="130" y="420" width="190" height="90" as="geometry"/>
        </mxCell>
      </root>
    </mxGraphModel>
  </diagram>
</mxfile>
